<svg width="178" height="45" viewBox="0 0 178 45" fill="none" xmlns="http://www.w3.org/2000/svg">
<path d="M9.3 33.21C7.84 33.21 6.52 32.96 5.34 32.46C4.18 31.96 3.26 31.24 2.58 30.3C1.9 29.36 1.55 28.25 1.53 26.97H6.03C6.09 27.83 6.39 28.51 6.93 29.01C7.49 29.51 8.25 29.76 9.21 29.76C10.19 29.76 10.96 29.53 11.52 29.07C12.08 28.59 12.36 27.97 12.36 27.21C12.36 26.59 12.17 26.08 11.79 25.68C11.41 25.28 10.93 24.97 10.35 24.75C9.79 24.51 9.01 24.25 8.01 23.97C6.65 23.57 5.54 23.18 4.68 22.8C3.84 22.4 3.11 21.81 2.49 21.03C1.89 20.23 1.59 19.17 1.59 17.85C1.59 16.61 1.9 15.53 2.52 14.61C3.14 13.69 4.01 12.99 5.13 12.51C6.25 12.01 7.53 11.76 8.97 11.76C11.13 11.76 12.88 12.29 14.22 13.35C15.58 14.39 16.33 15.85 16.47 17.73H11.85C11.81 17.01 11.5 16.42 10.92 15.96C10.36 15.48 9.61 15.24 8.67 15.24C7.85 15.24 7.19 15.45 6.69 15.87C6.21 16.29 5.97 16.9 5.97 17.7C5.97 18.26 6.15 18.73 6.51 19.11C6.89 19.47 7.35 19.77 7.89 20.01C8.45 20.23 9.23 20.49 10.23 20.79C11.59 21.19 12.7 21.59 13.56 21.99C14.42 22.39 15.16 22.99 15.78 23.79C16.4 24.59 16.71 25.64 16.71 26.94C16.71 28.06 16.42 29.1 15.84 30.06C15.26 31.02 14.41 31.79 13.29 32.37C12.17 32.93 10.84 33.21 9.3 33.21ZM36.0413 16.38V33H31.8113V30.9C31.2713 31.62 30.5613 32.19 29.6813 32.61C28.8213 33.01 27.8813 33.21 26.8613 33.21C25.5613 33.21 24.4113 32.94 23.4113 32.4C22.4113 31.84 21.6213 31.03 21.0413 29.97C20.4813 28.89 20.2013 27.61 20.2013 26.13V16.38H24.4013V25.53C24.4013 26.85 24.7313 27.87 25.3913 28.59C26.0513 29.29 26.9513 29.64 28.0913 29.64C29.2513 29.64 30.1613 29.29 30.8213 28.59C31.4813 27.87 31.8113 26.85 31.8113 25.53V16.38H36.0413ZM44.3852 18.78C44.9252 18.02 45.6652 17.39 46.6052 16.89C47.5652 16.37 48.6552 16.11 49.8752 16.11C51.2952 16.11 52.5752 16.46 53.7152 17.16C54.8752 17.86 55.7852 18.86 56.4452 20.16C57.1252 21.44 57.4652 22.93 57.4652 24.63C57.4652 26.33 57.1252 27.84 56.4452 29.16C55.7852 30.46 54.8752 31.47 53.7152 32.19C52.5752 32.91 51.2952 33.27 49.8752 33.27C48.6552 33.27 47.5752 33.02 46.6352 32.52C45.7152 32.02 44.9652 31.39 44.3852 30.63V40.92H40.1852V16.38H44.3852V18.78ZM53.1752 24.63C53.1752 23.63 52.9652 22.77 52.5452 22.05C52.1452 21.31 51.6052 20.75 50.9252 20.37C50.2652 19.99 49.5452 19.8 48.7652 19.8C48.0052 19.8 47.2852 20 46.6052 20.4C45.9452 20.78 45.4052 21.34 44.9852 22.08C44.5852 22.82 44.3852 23.69 44.3852 24.69C44.3852 25.69 44.5852 26.56 44.9852 27.3C45.4052 28.04 45.9452 28.61 46.6052 29.01C47.2852 29.39 48.0052 29.58 48.7652 29.58C49.5452 29.58 50.2652 29.38 50.9252 28.98C51.6052 28.58 52.1452 28.01 52.5452 27.27C52.9652 26.53 53.1752 25.65 53.1752 24.63ZM64.7173 18.96C65.2573 18.08 65.9573 17.39 66.8173 16.89C67.6973 16.39 68.6973 16.14 69.8173 16.14V20.55H68.7073C67.3873 20.55 66.3873 20.86 65.7073 21.48C65.0473 22.1 64.7173 23.18 64.7173 24.72V33H60.5173V16.38H64.7173V18.96ZM88.0962 24.33C88.0962 24.93 88.0562 25.47 87.9762 25.95H75.8262C75.9262 27.15 76.3462 28.09 77.0862 28.77C77.8262 29.45 78.7362 29.79 79.8162 29.79C81.3762 29.79 82.4862 29.12 83.1462 27.78H87.6762C87.1962 29.38 86.2762 30.7 84.9162 31.74C83.5562 32.76 81.8862 33.27 79.9062 33.27C78.3062 33.27 76.8662 32.92 75.5862 32.22C74.3262 31.5 73.3362 30.49 72.6162 29.19C71.9162 27.89 71.5662 26.39 71.5662 24.69C71.5662 22.97 71.9162 21.46 72.6162 20.16C73.3162 18.86 74.2962 17.86 75.5562 17.16C76.8162 16.46 78.2662 16.11 79.9062 16.11C81.4862 16.11 82.8962 16.45 84.1362 17.13C85.3962 17.81 86.3662 18.78 87.0462 20.04C87.7462 21.28 88.0962 22.71 88.0962 24.33ZM83.7462 23.13C83.7262 22.05 83.3362 21.19 82.5762 20.55C81.8162 19.89 80.8862 19.56 79.7862 19.56C78.7462 19.56 77.8662 19.88 77.1462 20.52C76.4462 21.14 76.0162 22.01 75.8562 23.13H83.7462Z" fill="#066F5B"/>
<path d="M94.1318 19.62C94.6918 18.64 95.5118 17.84 96.5918 17.22C97.6718 16.6 98.9018 16.29 100.282 16.29C101.762 16.29 103.092 16.64 104.272 17.34C105.452 18.04 106.382 19.03 107.062 20.31C107.742 21.57 108.082 23.04 108.082 24.72C108.082 26.38 107.742 27.86 107.062 29.16C106.382 30.46 105.442 31.47 104.242 32.19C103.062 32.91 101.742 33.27 100.282 33.27C98.8618 33.27 97.6118 32.96 96.5318 32.34C95.4718 31.72 94.6718 30.93 94.1318 29.97V33H91.4018V10.8H94.1318V19.62ZM105.292 24.72C105.292 23.48 105.042 22.4 104.542 21.48C104.042 20.56 103.362 19.86 102.502 19.38C101.662 18.9 100.732 18.66 99.7118 18.66C98.7118 18.66 97.7818 18.91 96.9218 19.41C96.0818 19.89 95.4018 20.6 94.8818 21.54C94.3818 22.46 94.1318 23.53 94.1318 24.75C94.1318 25.99 94.3818 27.08 94.8818 28.02C95.4018 28.94 96.0818 29.65 96.9218 30.15C97.7818 30.63 98.7118 30.87 99.7118 30.87C100.732 30.87 101.662 30.63 102.502 30.15C103.362 29.65 104.042 28.94 104.542 28.02C105.042 27.08 105.292 25.98 105.292 24.72Z" fill="url(#paint0_linear_665_8923)"/>
<path d="M149.13 34.7739C147.87 34.7739 146.74 34.5639 145.74 34.1439C144.74 33.7039 143.95 33.1039 143.37 32.3439C142.79 31.5639 142.47 30.6739 142.41 29.6739H145.23C145.31 30.4939 145.69 31.1639 146.37 31.6839C147.07 32.2039 147.98 32.4639 149.1 32.4639C150.14 32.4639 150.96 32.2339 151.56 31.7739C152.16 31.3139 152.46 30.7339 152.46 30.0339C152.46 29.3139 152.14 28.7839 151.5 28.4439C150.86 28.0839 149.87 27.7339 148.53 27.3939C147.31 27.0739 146.31 26.7539 145.53 26.4339C144.77 26.0939 144.11 25.6039 143.55 24.9639C143.01 24.3039 142.74 23.4439 142.74 22.3839C142.74 21.5439 142.99 20.7739 143.49 20.0739C143.99 19.3739 144.7 18.8239 145.62 18.4239C146.54 18.0039 147.59 17.7939 148.77 17.7939C150.59 17.7939 152.06 18.2539 153.18 19.1739C154.3 20.0939 154.9 21.3539 154.98 22.9539H152.25C152.19 22.0939 151.84 21.4039 151.2 20.8839C150.58 20.3639 149.74 20.1039 148.68 20.1039C147.7 20.1039 146.92 20.3139 146.34 20.7339C145.76 21.1539 145.47 21.7039 145.47 22.3839C145.47 22.9239 145.64 23.3739 145.98 23.7339C146.34 24.0739 146.78 24.3539 147.3 24.5739C147.84 24.7739 148.58 25.0039 149.52 25.2639C150.7 25.5839 151.66 25.9039 152.4 26.2239C153.14 26.5239 153.77 26.9839 154.29 27.6039C154.83 28.2239 155.11 29.0339 155.13 30.0339C155.13 30.9339 154.88 31.7439 154.38 32.4639C153.88 33.1839 153.17 33.7539 152.25 34.1739C151.35 34.5739 150.31 34.7739 149.13 34.7739ZM173.984 25.6539C173.984 26.1739 173.954 26.7239 173.894 27.3039H160.754C160.854 28.9239 161.404 30.1939 162.404 31.1139C163.424 32.0139 164.654 32.4639 166.094 32.4639C167.274 32.4639 168.254 32.1939 169.034 31.6539C169.834 31.0939 170.394 30.3539 170.714 29.4339H173.654C173.214 31.0139 172.334 32.3039 171.014 33.3039C169.694 34.2839 168.054 34.7739 166.094 34.7739C164.534 34.7739 163.134 34.4239 161.894 33.7239C160.674 33.0239 159.714 32.0339 159.014 30.7539C158.314 29.4539 157.964 27.9539 157.964 26.2539C157.964 24.5539 158.304 23.0639 158.984 21.7839C159.664 20.5039 160.614 19.5239 161.834 18.8439C163.074 18.1439 164.494 17.7939 166.094 17.7939C167.654 17.7939 169.034 18.1339 170.234 18.8139C171.434 19.4939 172.354 20.4339 172.994 21.6339C173.654 22.8139 173.984 24.1539 173.984 25.6539ZM171.164 25.0839C171.164 24.0439 170.934 23.1539 170.474 22.4139C170.014 21.6539 169.384 21.0839 168.584 20.7039C167.804 20.3039 166.934 20.1039 165.974 20.1039C164.594 20.1039 163.414 20.5439 162.434 21.4239C161.474 22.3039 160.924 23.5239 160.784 25.0839H171.164Z" fill="url(#paint1_linear_665_8923)"/>
<path d="M129.444 14.5039C131.531 14.5039 133.572 15.0904 135.308 16.1892C137.044 17.288 138.397 18.8498 139.196 20.6771C139.995 22.5043 140.204 24.515 139.797 26.4548C139.39 28.3946 138.384 30.1764 136.908 31.575C135.432 32.9735 133.551 33.9259 131.503 34.3118C129.455 34.6976 127.333 34.4996 125.404 33.7427C123.475 32.9858 121.826 31.7041 120.666 30.0596C119.506 28.4151 118.887 26.4817 118.887 24.5039C118.887 21.8517 119.999 19.3082 121.979 17.4328C123.959 15.5575 126.644 14.5039 129.444 14.5039ZM113.609 24.5039C113.611 26.0534 114.119 27.5643 115.064 28.829C116.009 30.0936 117.345 31.0499 118.887 31.5664V34.1789C116.628 33.6196 114.628 32.3665 113.201 30.6159C111.774 28.8652 111 26.7158 111 24.5039C111 22.292 111.774 20.1426 113.201 18.3919C114.628 16.6413 116.628 15.3882 118.887 14.8289V17.4414C117.345 17.9579 116.009 18.9142 115.064 20.1788C114.119 21.4435 113.611 22.9544 113.609 24.5039Z" fill="#066F5B"/>
<path d="M122.032 24.8799C122.032 23.5359 122.304 22.3599 122.848 21.3519C123.392 20.3279 124.136 19.5359 125.08 18.9759C126.04 18.4159 127.104 18.1359 128.272 18.1359C129.424 18.1359 130.424 18.3839 131.272 18.8799C132.12 19.3759 132.752 19.9999 133.168 20.7519V18.3519H135.376V31.5039H133.168V29.0559C132.736 29.8239 132.088 30.4639 131.224 30.9759C130.376 31.4719 129.384 31.7199 128.248 31.7199C127.08 31.7199 126.024 31.4319 125.08 30.8559C124.136 30.2799 123.392 29.4719 122.848 28.4319C122.304 27.3919 122.032 26.2079 122.032 24.8799ZM133.168 24.9039C133.168 23.9119 132.968 23.0479 132.568 22.3119C132.168 21.5759 131.624 21.0159 130.936 20.6319C130.264 20.2319 129.52 20.0319 128.704 20.0319C127.888 20.0319 127.144 20.2239 126.472 20.6079C125.8 20.9919 125.264 21.5519 124.864 22.2879C124.464 23.0239 124.264 23.8879 124.264 24.8799C124.264 25.8879 124.464 26.7679 124.864 27.5199C125.264 28.2559 125.8 28.8239 126.472 29.2239C127.144 29.6079 127.888 29.7999 128.704 29.7999C129.52 29.7999 130.264 29.6079 130.936 29.2239C131.624 28.8239 132.168 28.2559 132.568 27.5199C132.968 26.7679 133.168 25.8959 133.168 24.9039Z" fill="white"/>
<defs>
<linearGradient id="paint0_linear_665_8923" x1="59" y1="0" x2="59" y2="45" gradientUnits="userSpaceOnUse">
<stop stop-color="#10B981"/>
<stop offset="1" stop-color="#066F5B"/>
</linearGradient>
<linearGradient id="paint1_linear_665_8923" x1="159.5" y1="1.50391" x2="159.5" y2="39.5039" gradientUnits="userSpaceOnUse">
<stop stop-color="#10B981"/>
<stop offset="1" stop-color="#066F5B"/>
</linearGradient>
</defs>
</svg>
